<?xml version="1.0" encoding="UTF-8" standalone="no"?>
<!-- Created with Inkscape (http://www.inkscape.org/) -->

<svg
   width="118.12218mm"
   height="270.93307mm"
   viewBox="0 0 118.12218 270.93307"
   version="1.1"
   id="svg1"
   xmlns:inkscape="http://www.inkscape.org/namespaces/inkscape"
   xmlns:sodipodi="http://sodipodi.sourceforge.net/DTD/sodipodi-0.dtd"
   xmlns="http://www.w3.org/2000/svg"
   xmlns:svg="http://www.w3.org/2000/svg"
   >
  <g
     inkscape:label="Camada 1"
     inkscape:groupmode="layer"
     id="layer1"
     transform="translate(-49.690446,-4.4082154)">
    <path
       id="path1-3"
       style="fill:#000000;stroke-width:1.258"
       d="m 122.98899,4.5476452 c -1.0285,-0.075657 -2.05197,-0.1194936 -3.07044,-0.1343129 -9.25457,-0.1346252 -18.77553,2.4008983 -27.012503,5.9769947 -11.97424,5.198669 -27.44025,19.4737 -34.41682,31.76653 -6.45212,11.368802 -9.589154,25.373928 -8.628626,38.513541 0.928348,12.699328 4.758476,19.834332 13.456746,25.070072 9.14517,5.5047 18.50948,9.05476 27.74419,5.81264 14.057533,-4.93533 14.511973,-6.1025 16.577313,-2.20352 -4.40013,10.67226 -17.757583,66.49289 -17.753653,74.19248 0.003,5.55808 6.63959,12.24666 12.098223,12.19352 2.11912,-0.0206 6.12053,-1.08127 8.88939,-2.35935 9.60284,-4.43246 12.29599,-10.2806 47.45133,-102.932465 8.64608,-22.786882 9.47392,-26.120079 9.48842,-38.223261 0.024,-20.155873 -7.08904,-32.405632 -24.30325,-41.853898 C 137.52865,7.0840577 130.18854,5.0770204 122.98899,4.5476294 Z M 107.82112,55.434106 c 6.09814,0.621239 12.2152,5.763779 12.21809,10.573967 0.002,3.307596 -4.94187,21.532435 -9.28041,34.211217 -1.16024,3.39071 -8.41042,2.12226 -15.630293,-2.733095 -7.19646,-4.839592 -7.73506,-6.274636 -6.9858,-18.654609 0.77032,-12.728199 9.21353,-23.455135 18.463773,-23.459876 0.40459,-1.11e-4 0.80809,0.02106 1.21464,0.0624 z M 94.881377,219.0187 c -17.84855,-1.51622 -30.48267,8.30379 -31.89452,24.79153 -1.10934,12.95518 5.2645,24.12513 16.58509,29.06691 10.509,4.58756 23.096433,2.67221 32.426763,-4.9331 11.52455,-9.39385 13.15337,-24.74401 4.06468,-38.32635 -4.11525,-6.14995 -11.33972,-9.76283 -21.182013,-10.59899 z"
       sodipodi:nodetypes="sssssssscsssssssccsssscssssss"
       inkscape:label="minilogo" />
  </g>
</svg>
